<svg width="52" height="52" viewBox="0 0 52 52" fill="none" xmlns="http://www.w3.org/2000/svg">
<path d="M7.56454 21.3065L14.4906 24.2612C15.2743 22.715 16.1109 21.19 17.0005 19.6862C17.8901 18.1824 18.8432 16.7315 19.8599 15.3336L14.6177 14.2534L7.56454 21.3065ZM17.4453 26.4852L25.8963 34.9362C28.5015 33.7078 30.8685 32.3893 32.9971 30.9808C35.1257 29.5723 36.8467 28.2114 38.1599 26.8982C41.5487 23.5093 44.0322 20.0198 45.6101 16.4297C47.1881 12.8396 48.0618 8.74647 48.2312 4.15029C43.635 4.31973 39.5419 5.18813 35.9518 6.75549C32.3617 8.32285 28.8722 10.801 25.4833 14.1899C24.1701 15.5031 22.8092 17.2293 21.4007 19.3685C19.9922 21.5078 18.6737 23.88 17.4453 26.4852ZM32.4411 19.9404C31.5939 19.1143 31.1703 18.0924 31.1703 16.8745C31.1703 15.6566 31.5939 14.6241 32.4411 13.7768C33.2672 12.9296 34.2891 12.506 35.507 12.506C36.7249 12.506 37.7574 12.9296 38.6046 13.7768C39.4307 14.6241 39.8437 15.6566 39.8437 16.8745C39.8437 18.0924 39.4307 19.1143 38.6046 19.9404C37.7574 20.7876 36.7249 21.2112 35.507 21.2112C34.2891 21.2112 33.2672 20.7876 32.4411 19.9404ZM31.075 44.817L38.1281 37.7638L37.0479 32.5216C35.65 33.5171 34.1991 34.465 32.6953 35.3651C31.1915 36.2653 29.6665 37.1072 28.1203 37.8909L31.075 44.817ZM51.8213 0.560181C52.2661 6.04595 51.5672 11.2034 49.7244 16.0326C47.8817 20.8617 44.9165 25.3203 40.8286 29.4081L40.2885 29.9482L41.6864 37.0331C41.8135 37.6473 41.7817 38.2404 41.5911 38.8123C41.4005 39.3841 41.0934 39.8925 40.6698 40.3373L29.8677 51.2029L24.4984 38.6852L13.6645 27.8831L1.17861 22.5138L12.076 11.7117C12.4996 11.267 12.9974 10.9492 13.5692 10.7586C14.1411 10.568 14.7342 10.5362 15.3484 10.6633L22.4333 12.093C22.518 12.0083 22.6027 11.9288 22.6875 11.8547C22.7722 11.7806 22.8675 11.7012 22.9734 11.6164C27.0612 7.52858 31.5198 4.55272 36.3489 2.68883C41.1781 0.824938 46.3355 0.11539 51.8213 0.560181ZM5.59475 35.4446C7.07739 33.9619 8.87244 33.2206 10.9799 33.2206C13.0874 33.2206 14.8718 33.9407 16.3333 35.381C17.7948 36.8637 18.5202 38.6587 18.5096 40.7662C18.499 42.8736 17.763 44.6581 16.3015 46.1196C15.179 47.2421 13.4845 48.1582 11.2182 48.8677C8.95187 49.5773 5.52062 50.2392 0.924438 50.8534C1.55986 46.2572 2.21645 42.8207 2.89423 40.5438C3.57201 38.2669 4.47218 36.5671 5.59475 35.4446ZM8.16819 38.0815C7.53277 38.7593 6.98737 39.7813 6.53199 41.1474C6.07661 42.5136 5.66888 44.2769 5.30881 46.4373C7.46923 46.0772 9.23251 45.6695 10.5987 45.2141C11.9648 44.7587 12.9868 44.2133 13.6645 43.5779C14.4694 42.8789 14.8824 41.9682 14.9036 40.8456C14.9248 39.723 14.5541 38.7593 13.7916 37.9545C12.9656 37.192 11.9966 36.8213 10.8846 36.8425C9.77262 36.8637 8.86715 37.2767 8.16819 38.0815Z" fill="#D9D9D9"/>
</svg>
