<svg width="34" height="34" viewBox="0 0 34 34" fill="none" xmlns="http://www.w3.org/2000/svg">
<path d="M16.9999 33.6673C14.7221 33.6673 12.5694 33.2298 10.5416 32.3548C8.51381 31.4798 6.74298 30.2854 5.22909 28.7715C3.7152 27.2576 2.52075 25.4868 1.64575 23.459C0.770752 21.4312 0.333252 19.2784 0.333252 17.0007C0.333252 14.6582 0.780058 12.473 1.67367 10.4452C2.567 8.41746 3.7845 6.65357 5.32617 5.15357C6.86784 3.65357 8.67117 2.47524 10.7362 1.61857C12.8009 0.76218 15.0092 0.333984 17.3612 0.333984C19.5648 0.333984 21.6527 0.706624 23.6249 1.4519C25.5971 2.19746 27.3263 3.22996 28.8124 4.5494C30.2985 5.86885 31.4791 7.43357 32.3541 9.24357C33.2291 11.0538 33.6666 13.0284 33.6666 15.1673C33.6666 18.232 32.7592 20.6279 30.9445 22.3548C29.1295 24.0818 26.7962 24.9452 23.9445 24.9452H20.8333C20.4166 24.9452 20.0717 25.098 19.7987 25.4036C19.5253 25.7091 19.3887 26.047 19.3887 26.4173C19.3887 27.0284 19.5924 27.6141 19.9999 28.1744C20.4074 28.7344 20.6112 29.3802 20.6112 30.1119C20.6112 31.2786 20.2894 32.1627 19.6458 32.7644C19.0021 33.3663 18.1202 33.6673 16.9999 33.6673ZM7.472 18.2786C8.08311 18.2786 8.60631 18.0609 9.04159 17.6257C9.47686 17.1904 9.6945 16.6672 9.6945 16.0561C9.6945 15.445 9.47686 14.9219 9.04159 14.4869C8.60631 14.0516 8.08311 13.834 7.472 13.834C6.86089 13.834 6.33784 14.0516 5.90284 14.4869C5.46756 14.9219 5.24992 15.445 5.24992 16.0561C5.24992 16.6672 5.46756 17.1904 5.90284 17.6257C6.33784 18.0609 6.86089 18.2786 7.472 18.2786ZM12.6387 11.334C13.2498 11.334 13.773 11.1163 14.2083 10.6811C14.6435 10.2461 14.8612 9.72301 14.8612 9.1119C14.8612 8.50079 14.6435 7.9776 14.2083 7.54232C13.773 7.10704 13.2498 6.8894 12.6387 6.8894C12.0276 6.8894 11.5045 7.10704 11.0695 7.54232C10.6342 7.9776 10.4166 8.50079 10.4166 9.1119C10.4166 9.72301 10.6342 10.2461 11.0695 10.6811C11.5045 11.1163 12.0276 11.334 12.6387 11.334ZM21.3612 11.334C21.9723 11.334 22.4953 11.1163 22.9303 10.6811C23.3656 10.2461 23.5833 9.72301 23.5833 9.1119C23.5833 8.50079 23.3656 7.9776 22.9303 7.54232C22.4953 7.10704 21.9723 6.8894 21.3612 6.8894C20.7501 6.8894 20.2269 7.10704 19.7916 7.54232C19.3563 7.9776 19.1387 8.50079 19.1387 9.1119C19.1387 9.72301 19.3563 10.2461 19.7916 10.6811C20.2269 11.1163 20.7501 11.334 21.3612 11.334ZM26.6666 18.2786C27.2777 18.2786 27.8009 18.0609 28.2362 17.6257C28.6712 17.1904 28.8887 16.6672 28.8887 16.0561C28.8887 15.445 28.6712 14.9219 28.2362 14.4869C27.8009 14.0516 27.2777 13.834 26.6666 13.834C26.0555 13.834 25.5323 14.0516 25.097 14.4869C24.662 14.9219 24.4445 15.445 24.4445 16.0561C24.4445 16.6672 24.662 17.1904 25.097 17.6257C25.5323 18.0609 26.0555 18.2786 26.6666 18.2786ZM16.9999 30.8894C17.2869 30.8894 17.4976 30.8247 17.632 30.6952C17.7662 30.5655 17.8333 30.3711 17.8333 30.1119C17.8333 29.723 17.6295 29.3294 17.222 28.9311C16.8148 28.533 16.6112 27.7784 16.6112 26.6673C16.6112 25.4265 17.0231 24.3664 17.847 23.4869C18.6712 22.6072 19.7037 22.1673 20.9445 22.1673H23.9445C25.9628 22.1673 27.6248 21.577 28.9303 20.3965C30.2359 19.2159 30.8887 17.4729 30.8887 15.1673C30.8887 11.6026 29.5345 8.70218 26.8262 6.46607C24.1178 4.22996 20.9628 3.1119 17.3612 3.1119C13.3981 3.1119 10.0323 4.4544 7.26367 7.1394C4.49534 9.82468 3.11117 13.1118 3.11117 17.0007C3.11117 20.8432 4.46534 24.1186 7.17367 26.8269C9.882 29.5352 13.1574 30.8894 16.9999 30.8894Z" fill="#D9D9D9"/>
</svg>
