<svg width="61" height="61" viewBox="0 0 61 61" fill="none" xmlns="http://www.w3.org/2000/svg">
<g clip-path="url(#clip0_539_778)">
<mask id="mask0_539_778" style="mask-type:alpha" maskUnits="userSpaceOnUse" x="0" y="0" width="61" height="61">
<rect width="61" height="61" fill="#D9D9D9"/>
</mask>
<g mask="url(#mask0_539_778)">
<path d="M7.94531 44.3216V16.681C7.94531 15.6762 8.30305 14.816 9.01853 14.1006C9.73401 13.3851 10.5942 13.0273 11.599 13.0273H49.4062C50.4111 13.0273 51.2712 13.3851 51.9867 14.1006C52.7022 14.816 53.0599 15.6762 53.0599 16.681V44.3216C53.0599 45.3264 52.7022 46.1866 51.9867 46.902C51.2712 47.6175 50.4111 47.9753 49.4062 47.9753H11.599C10.5942 47.9753 9.73401 47.6175 9.01853 46.902C8.30305 46.1866 7.94531 45.3264 7.94531 44.3216ZM24.7839 28.6586H49.4062V16.681H24.7839V28.6586ZM39.176 44.3216H49.4062V32.344H39.176V44.3216ZM24.7839 44.3216H35.0776V32.344H24.7839V44.3216ZM11.599 44.3216H21.1302V16.681H11.599V44.3216Z" fill="#D9D9D9"/>
</g>
</g>
<defs>
<clipPath id="clip0_539_778">
<rect width="61" height="61" fill="white"/>
</clipPath>
</defs>
</svg>
