<svg width="41" height="40" viewBox="0 0 41 40" fill="none" xmlns="http://www.w3.org/2000/svg">
<g filter="url(#filter0_i_355_1632)">
<mask id="mask0_355_1632" style="mask-type:alpha" maskUnits="userSpaceOnUse" x="0" y="0" width="41" height="40">
<rect x="0.5" width="40" height="40" fill="#D9D9D9"/>
</mask>
<g mask="url(#mask0_355_1632)">
<path d="M7.16659 35C6.24992 35 5.4652 34.6736 4.81242 34.0208C4.15964 33.3681 3.83325 32.5833 3.83325 31.6667V8.33333C3.83325 7.41667 4.15964 6.63194 4.81242 5.97917C5.4652 5.32639 6.24992 5 7.16659 5H15.4999C16.4166 5 17.2013 5.32639 17.8541 5.97917C18.5069 6.63194 18.8333 7.41667 18.8333 8.33333V31.6667C18.8333 32.5833 18.5069 33.3681 17.8541 34.0208C17.2013 34.6736 16.4166 35 15.4999 35H7.16659ZM25.4999 35C24.5833 35 23.7985 34.6736 23.1458 34.0208C22.493 33.3681 22.1666 32.5833 22.1666 31.6667V8.33333C22.1666 7.41667 22.493 6.63194 23.1458 5.97917C23.7985 5.32639 24.5833 5 25.4999 5H33.8333C34.7499 5 35.5346 5.32639 36.1874 5.97917C36.8402 6.63194 37.1666 7.41667 37.1666 8.33333V31.6667C37.1666 32.5833 36.8402 33.3681 36.1874 34.0208C35.5346 34.6736 34.7499 35 33.8333 35H25.4999ZM7.16659 31.6667H15.4999V8.33333H7.16659V31.6667ZM25.4999 31.6667H33.8333V8.33333H25.4999V31.6667ZM8.83325 25H13.8333V21.6667H8.83325V25ZM27.1666 25H32.1666V21.6667H27.1666V25ZM8.83325 20H13.8333V16.6667H8.83325V20ZM27.1666 20H32.1666V16.6667H27.1666V20ZM8.83325 15H13.8333V11.6667H8.83325V15ZM27.1666 15H32.1666V11.6667H27.1666V15Z" fill="#D9D9D9"/>
</g>
</g>
<defs>
<filter id="filter0_i_355_1632" x="3.83325" y="5" width="33.3333" height="30" filterUnits="userSpaceOnUse" color-interpolation-filters="sRGB">
<feFlood flood-opacity="0" result="BackgroundImageFix"/>
<feBlend mode="normal" in="SourceGraphic" in2="BackgroundImageFix" result="shape"/>
<feColorMatrix in="SourceAlpha" type="matrix" values="0 0 0 0 0 0 0 0 0 0 0 0 0 0 0 0 0 0 127 0" result="hardAlpha"/>
<feOffset/>
<feGaussianBlur stdDeviation="1"/>
<feComposite in2="hardAlpha" operator="arithmetic" k2="-1" k3="1"/>
<feColorMatrix type="matrix" values="0 0 0 0 0.682353 0 0 0 0 0.368627 0 0 0 0 0.862745 0 0 0 1 0"/>
<feBlend mode="normal" in2="shape" result="effect1_innerShadow_355_1632"/>
</filter>
</defs>
</svg>
