<svg width="41" height="40" viewBox="0 0 41 40" fill="none" xmlns="http://www.w3.org/2000/svg">
<g filter="url(#filter0_i_355_1622)">
<mask id="mask0_355_1622" style="mask-type:alpha" maskUnits="userSpaceOnUse" x="0" y="0" width="41" height="40">
<rect x="0.5" width="40" height="40" fill="#D9D9D9"/>
</mask>
<g mask="url(#mask0_355_1622)">
<path d="M7.16667 35V27.9167L29.125 6C29.4583 5.66667 29.8333 5.41667 30.25 5.25C30.6667 5.08333 31.0833 5 31.5 5C31.9444 5 32.3681 5.08333 32.7708 5.25C33.1736 5.41667 33.5278 5.66667 33.8333 6L36.1667 8.33333C36.5 8.63889 36.75 8.99306 36.9167 9.39583C37.0833 9.79861 37.1667 10.2222 37.1667 10.6667C37.1667 11.0833 37.0833 11.5 36.9167 11.9167C36.75 12.3333 36.5 12.7083 36.1667 13.0417L14.25 35H7.16667ZM10.5 31.6667H12.8333L29.2083 15.3333L28.0417 14.125L26.8333 12.9583L10.5 29.3333V31.6667ZM28.0417 14.125L26.8333 12.9583L29.2083 15.3333L28.0417 14.125ZM23.8333 35C25.8889 35 27.7917 34.4861 29.5417 33.4583C31.2917 32.4306 32.1667 31 32.1667 29.1667C32.1667 28.1667 31.9028 27.3056 31.375 26.5833C30.8472 25.8611 30.1389 25.2361 29.25 24.7083L26.7917 27.1667C27.4306 27.4444 27.9306 27.75 28.2917 28.0833C28.6528 28.4167 28.8333 28.7778 28.8333 29.1667C28.8333 29.8056 28.3264 30.3819 27.3125 30.8958C26.2986 31.4097 25.1389 31.6667 23.8333 31.6667C23.3611 31.6667 22.9653 31.8264 22.6458 32.1458C22.3264 32.4653 22.1667 32.8611 22.1667 33.3333C22.1667 33.8056 22.3264 34.2014 22.6458 34.5208C22.9653 34.8403 23.3611 35 23.8333 35ZM8.125 22.25L10.625 19.75C10.0694 19.5278 9.63194 19.2986 9.3125 19.0625C8.99306 18.8264 8.83333 18.5833 8.83333 18.3333C8.83333 18 9.08333 17.6667 9.58333 17.3333C10.0833 17 11.1389 16.4861 12.75 15.7917C15.1944 14.7361 16.8194 13.7778 17.625 12.9167C18.4306 12.0556 18.8333 11.0833 18.8333 10C18.8333 8.47222 18.2222 7.25694 17 6.35417C15.7778 5.45139 14.1667 5 12.1667 5C10.9167 5 9.79861 5.22222 8.8125 5.66667C7.82639 6.11111 7.06944 6.65278 6.54167 7.29167C6.23611 7.65278 6.11111 8.05556 6.16667 8.5C6.22222 8.94444 6.43056 9.30556 6.79167 9.58333C7.15278 9.88889 7.55556 10.0139 8 9.95833C8.44444 9.90278 8.81944 9.72222 9.125 9.41667C9.51389 9.02778 9.94444 8.75 10.4167 8.58333C10.8889 8.41667 11.4722 8.33333 12.1667 8.33333C13.3056 8.33333 14.1458 8.5 14.6875 8.83333C15.2292 9.16667 15.5 9.55556 15.5 10C15.5 10.3889 15.2569 10.7431 14.7708 11.0625C14.2847 11.3819 13.1667 11.9444 11.4167 12.75C9.19444 13.7222 7.65278 14.6042 6.79167 15.3958C5.93056 16.1875 5.5 17.1667 5.5 18.3333C5.5 19.2222 5.73611 19.9792 6.20833 20.6042C6.68056 21.2292 7.31944 21.7778 8.125 22.25Z" fill="#D9D9D9"/>
</g>
</g>
<defs>
<filter id="filter0_i_355_1622" x="5.5" y="5" width="31.6666" height="30" filterUnits="userSpaceOnUse" color-interpolation-filters="sRGB">
<feFlood flood-opacity="0" result="BackgroundImageFix"/>
<feBlend mode="normal" in="SourceGraphic" in2="BackgroundImageFix" result="shape"/>
<feColorMatrix in="SourceAlpha" type="matrix" values="0 0 0 0 0 0 0 0 0 0 0 0 0 0 0 0 0 0 127 0" result="hardAlpha"/>
<feOffset/>
<feGaussianBlur stdDeviation="1"/>
<feComposite in2="hardAlpha" operator="arithmetic" k2="-1" k3="1"/>
<feColorMatrix type="matrix" values="0 0 0 0 0.682353 0 0 0 0 0.368627 0 0 0 0 0.862745 0 0 0 1 0"/>
<feBlend mode="normal" in2="shape" result="effect1_innerShadow_355_1622"/>
</filter>
</defs>
</svg>
