<svg width="236" height="34" viewBox="0 0 236 34" fill="none" xmlns="http://www.w3.org/2000/svg">
<path d="M83.1694 0C87.5376 0 91.0729 1.3908 93.7755 4.1724L90.0044 7.876C89.0303 6.93838 87.9932 6.25079 86.8933 5.81324C85.8249 5.37568 84.6464 5.1569 83.358 5.1569C81.7867 5.1569 80.4983 5.51632 79.4927 6.23516C78.5185 6.954 78.0314 7.93851 78.0314 9.18866C78.0314 9.87625 78.1885 10.4545 78.5027 10.9233C78.8484 11.3921 79.4141 11.8296 80.1997 12.2359C80.9854 12.6422 82.1324 13.0954 83.6408 13.5955C86.4062 14.4706 88.496 15.6114 89.9102 17.0178C91.3243 18.4242 92.0314 20.3307 92.0314 22.7373C92.0314 24.6437 91.56 26.4565 90.6172 28.1754C89.6745 29.8632 88.1818 31.254 86.1391 32.3479C84.0965 33.4105 81.5039 33.9418 78.3613 33.9418C75.8159 33.9418 73.5847 33.5199 71.6677 32.676C69.7508 31.8322 68.1481 30.707 66.8596 29.3006L70.8664 25.3626C71.9034 26.4252 73.0347 27.2378 74.2603 27.8004C75.5173 28.3317 76.9472 28.5974 78.5499 28.5974C80.4668 28.5974 81.991 28.1598 83.1223 27.2847C84.2536 26.4096 84.8193 25.2219 84.8193 23.7218C84.8193 22.5654 84.4264 21.6434 83.6408 20.9558C82.8866 20.2682 81.5039 19.5806 79.4927 18.893C76.4444 17.8616 74.2446 16.6584 72.8933 15.2832C71.542 13.8768 70.8664 12.0953 70.8664 9.93876C70.8664 8.25105 71.322 6.65709 72.2334 5.1569C73.1761 3.62546 74.5746 2.39093 76.4287 1.45331C78.2828 0.484436 80.5297 0 83.1694 0Z" fill="#D9D9D9"/>
<path d="M120.18 0.750094L118.672 6.1414H110.517L106.699 33.1917H99.8637L103.682 6.1414H95.1499L95.9041 0.750094H120.18Z" fill="#D9D9D9"/>
<path d="M133.782 33.1917L132.981 25.9252H122.846L120.018 33.1917H112.9L127.372 0.750094H135.715L140.995 33.1917H133.782ZM124.826 20.8151H132.415L130.766 5.53195L124.826 20.8151Z" fill="#D9D9D9"/>
<path d="M170.322 9.23554C170.322 11.4546 169.74 13.4392 168.577 15.1894C167.446 16.9084 165.482 18.2992 162.685 19.3618L168.955 33.1917H161.412L156.274 20.487H152.598L150.853 33.1917H143.971L148.544 0.750094H158.584C162.449 0.750094 165.372 1.48456 167.352 2.9535C169.332 4.42243 170.322 6.51645 170.322 9.23554ZM153.305 15.6114H156.981C159.181 15.6114 160.768 15.0175 161.742 13.8299C162.717 12.611 163.204 11.1733 163.204 9.51683C163.204 8.17291 162.779 7.20404 161.931 6.61021C161.082 6.01639 159.731 5.71947 157.877 5.71947H154.672L153.305 15.6114Z" fill="#D9D9D9"/>
<path d="M197.47 0.750094L195.962 6.1414H187.807L183.989 33.1917H177.154L180.972 6.1414H172.44L173.194 0.750094H197.47Z" fill="#D9D9D9"/>
<path d="M207.858 0.750094L203.285 33.1917H196.403L200.976 0.750094H207.858Z" fill="#D9D9D9"/>
<path d="M236 0.750094L234.492 6.1414H226.337L222.518 33.1917H215.683L219.502 6.1414H210.97L211.724 0.750094H236Z" fill="#D9D9D9"/>
<path d="M17.88 0.0517309H28.4454L26.0072 8.13465H15.4418L17.88 0.0517309Z" fill="#2D2D2D"/>
<path d="M17.88 12.9844H28.4454L26.0072 21.8756H15.4418L17.88 12.9844Z" fill="#D9D9D9"/>
<path d="M17.88 25.9171H28.4454L26.0072 34H15.4418L17.88 25.9171Z" fill="#2D2D2D"/>
<path d="M2.43818 0.0517309H13.0036L10.5654 8.13465H0L2.43818 0.0517309Z" fill="#D9D9D9"/>
<path d="M2.43818 12.9844H13.0036L10.5654 21.8756H0L2.43818 12.9844Z" fill="#2D2D2D"/>
<path d="M2.43818 25.9171H13.0036L10.5654 34H0L2.43818 25.9171Z" fill="#D9D9D9"/>
<path d="M34.1345 0.0517309H44.6999L42.2617 8.13465H31.6963L34.1345 0.0517309Z" fill="#D9D9D9"/>
<path d="M34.1345 12.9844H44.6999L42.2617 21.8756H31.6963L34.1345 12.9844Z" fill="#2D2D2D"/>
<path d="M34.1345 25.9171H44.6999L42.2617 34H31.6963L34.1345 25.9171Z" fill="#D9D9D9"/>
<path d="M49.5763 0.0517309H60.1417L57.7035 8.13465H47.1381L49.5763 0.0517309Z" fill="#2D2D2D"/>
<path d="M49.5763 12.9844H60.1417L57.7035 21.8756H47.1381L49.5763 12.9844Z" fill="#D9D9D9"/>
<path d="M49.5763 25.9171H60.1417L57.7035 34H47.1381L49.5763 25.9171Z" fill="#2D2D2D"/>
</svg>
